<svg width="65" height="48" viewBox="0 0 65 48" fill="none" xmlns="http://www.w3.org/2000/svg">
<path d="M63.0735 33.9708C62.311 33.9708 61.693 34.589 61.693 35.3513C61.693 37.6351 59.835 39.4931 57.5512 39.4931C55.2675 39.4931 53.4095 37.6351 53.4095 35.3513C53.4095 34.589 52.7914 33.9708 52.029 33.9708C51.2665 33.9708 50.6484 34.589 50.6484 35.3513C50.6484 37.6351 48.7905 39.4931 46.5067 39.4931C46.4141 39.4931 46.3223 39.4892 46.2307 39.4833C47.2895 37.4135 47.8873 35.0703 47.8873 32.5902C47.8873 30.4607 47.4459 28.4328 46.6512 26.5916C46.6305 26.5355 46.6072 26.4808 46.5797 26.4284C44.3903 21.5161 39.6678 17.9729 34.0813 17.4669V14.303L52.4082 9.06677C53.0008 8.89758 53.4095 8.35591 53.4095 7.73945C53.4095 7.12299 53.0008 6.58132 52.4082 6.41201L33.0798 0.889876C33.071 0.887395 33.062 0.886279 33.0532 0.883922C33.017 0.874372 32.9802 0.865937 32.943 0.859363C32.9263 0.85651 32.9095 0.854029 32.8928 0.851673C32.8605 0.847083 32.8279 0.843858 32.7949 0.841626C32.7756 0.840261 32.7564 0.839145 32.7371 0.838773C32.7248 0.838525 32.7129 0.837036 32.7007 0.837036C32.6807 0.837036 32.6613 0.839269 32.6416 0.839889C32.6234 0.840758 32.6052 0.84113 32.5869 0.842618C32.5496 0.845595 32.5132 0.850804 32.4769 0.856758C32.4647 0.858867 32.4526 0.859983 32.4406 0.862216C32.3393 0.881566 32.2422 0.911831 32.1501 0.951771C32.1431 0.954624 32.1367 0.958345 32.1297 0.96157C32.0915 0.978935 32.0542 0.997912 32.0178 1.0185C32.0048 1.02594 31.9923 1.03401 31.9796 1.04182C31.9496 1.06018 31.9206 1.07953 31.8922 1.10012C31.8847 1.10545 31.8767 1.10979 31.8692 1.11525C31.8629 1.12009 31.8573 1.12579 31.851 1.13076C31.8238 1.15197 31.7978 1.17442 31.7724 1.19761C31.7606 1.2084 31.7484 1.21857 31.7371 1.22961C31.7049 1.26112 31.674 1.29411 31.6449 1.3286C31.6423 1.33157 31.6392 1.33455 31.6367 1.33753C31.605 1.37573 31.5758 1.41604 31.5484 1.45759C31.5418 1.46764 31.536 1.47818 31.5296 1.48848C31.5097 1.52048 31.4906 1.55335 31.4732 1.58709C31.4666 1.60011 31.4605 1.61314 31.4543 1.62628C31.439 1.65853 31.4248 1.69153 31.4119 1.72527C31.4066 1.73916 31.4014 1.75317 31.3965 1.76719C31.3848 1.8013 31.3747 1.83578 31.3657 1.87089C31.3619 1.88515 31.358 1.89917 31.3547 1.91343C31.3464 1.95002 31.3403 1.98723 31.335 2.02494C31.3333 2.03809 31.3304 2.05086 31.3291 2.06426C31.3234 2.11449 31.32 2.16547 31.32 2.2172V13.2618V17.4669C25.7336 17.9728 21.011 21.516 18.8217 26.4282C18.7942 26.4807 18.7707 26.5354 18.7501 26.5916C17.9553 28.4329 17.5141 30.4608 17.5141 32.5902C17.5141 35.0703 18.1118 37.4135 19.1706 39.4833C19.079 39.4892 18.9872 39.4931 18.8946 39.4931C16.6108 39.4931 14.7529 37.6351 14.7529 35.3513C14.7529 34.589 14.1348 33.9708 13.3723 33.9708C12.6099 33.9708 11.9918 34.589 11.9918 35.3513C11.9918 37.6351 10.1339 39.4931 7.85009 39.4931C5.56632 39.4931 3.70836 37.6351 3.70836 35.3513C3.70836 34.589 3.09029 33.9708 2.32783 33.9708C1.56538 33.9708 0.947052 34.589 0.947052 35.3513C0.947052 39.1577 4.04376 42.2542 7.84996 42.2542C10.1057 42.2542 12.1119 41.1666 13.3723 39.4882C14.6328 41.1664 16.639 42.2542 18.8947 42.2542C19.5419 42.2542 20.1738 42.1664 20.7836 41.9929C23.5672 45.5134 27.8744 47.7766 32.7007 47.7766C37.5269 47.7766 41.8341 45.5134 44.6178 41.9929C45.2275 42.1664 45.8594 42.2542 46.5066 42.2542C48.7623 42.2542 50.7685 41.1666 52.029 39.4882C53.2894 41.1664 55.2956 42.2542 57.5514 42.2542C61.3577 42.2542 64.4543 39.1575 64.4543 35.3513C64.454 34.589 63.8359 33.9708 63.0735 33.9708ZM34.0811 4.04749L47.0034 7.73957L34.0811 11.4318V4.04749ZM32.7005 45.0154C25.8492 45.0154 20.2752 39.4415 20.2752 32.5902C20.2752 31.1383 20.5264 29.7445 20.986 28.4483H32.7005C33.463 28.4483 34.0811 27.8301 34.0811 27.0678C34.0811 26.3054 33.463 25.6872 32.7005 25.6872H22.3745C24.6061 22.3597 28.4017 20.165 32.7005 20.165C36.9994 20.165 40.7949 22.3597 43.0266 25.6872H40.9381C40.1756 25.6872 39.5576 26.3054 39.5576 27.0678C39.5576 27.8301 40.1756 28.4483 40.9381 28.4483H44.4151C44.8746 29.7445 45.1258 31.1384 45.1258 32.5902C45.1258 39.4415 39.5518 45.0154 32.7005 45.0154Z" fill="#0066FF"/>
</svg>
