<svg width="59" height="9" viewBox="0 0 59 9" fill="none" xmlns="http://www.w3.org/2000/svg">
<path d="M56.889 0.0864258C56.1265 0.0864258 55.5084 0.704627 55.5084 1.46696C55.5084 3.75073 53.6505 5.60868 51.3667 5.60868C49.0829 5.60868 47.225 3.75073 47.225 1.46696C47.225 0.704627 46.6069 0.0864258 45.8444 0.0864258C45.082 0.0864258 44.4639 0.704627 44.4639 1.46696C44.4639 3.75073 42.606 5.60868 40.3222 5.60868C38.0384 5.60868 36.1805 3.75073 36.1805 1.46696C36.1805 0.704627 35.5624 0.0864258 34.7999 0.0864258C34.0375 0.0864258 33.4194 0.704627 33.4194 1.46696C33.4194 3.75073 31.5615 5.60868 29.2777 5.60868C26.9939 5.60868 25.136 3.75073 25.136 1.46696C25.136 0.704627 24.5179 0.0864258 23.7554 0.0864258C22.993 0.0864258 22.3749 0.704627 22.3749 1.46696C22.3749 3.75073 20.517 5.60868 18.2332 5.60868C15.9494 5.60868 14.0915 3.75073 14.0915 1.46696C14.0915 0.704627 13.4734 0.0864258 12.7109 0.0864258C11.9485 0.0864258 11.3304 0.704627 11.3304 1.46696C11.3304 3.75073 9.47244 5.60868 7.18867 5.60868C4.9049 5.60868 3.04695 3.75073 3.04695 1.46696C3.04695 0.704627 2.42888 0.0864258 1.66642 0.0864258C0.903965 0.0864258 0.285889 0.704627 0.285889 1.46696C0.285889 5.27328 3.3826 8.36987 7.1888 8.36987C9.44454 8.36987 11.4507 7.28219 12.7112 5.60384C13.9716 7.28206 15.9778 8.36987 18.2336 8.36987C20.4893 8.36987 22.4955 7.28219 23.7559 5.60384C25.0164 7.28206 27.0226 8.36987 29.2783 8.36987C31.534 8.36987 33.5402 7.28219 34.8007 5.60384C36.0611 7.28206 38.0673 8.36987 40.3231 8.36987C42.5788 8.36987 44.585 7.28219 45.8454 5.60384C47.1059 7.28206 49.1121 8.36987 51.3678 8.36987C55.1741 8.36987 58.2707 5.27316 58.2707 1.46696C58.2695 0.704627 57.6514 0.0864258 56.889 0.0864258Z" fill="#0066FF"/>
</svg>
